<svg id="Layer_1" data-name="Layer 1" xmlns="http://www.w3.org/2000/svg" width="20" height="20" viewBox="0 0 20 20"><defs><style>.cls-1{fill:#373150;}</style></defs><title>beta-print</title><polygon class="cls-1" points="0 6 0 17 2.58 17 3.02 14.804 3.18 14 4 14 16 14 16.82 14 16.98 14.804 17.42 17 20 17 20 6 0 6"/><path class="cls-1" d="M15,1H5A2.006,2.006,0,0,0,3,3V5H17V3A2.006,2.006,0,0,0,15,1Z"/><line class="cls-1" x1="16.41" y1="14.5" x2="17.61" y2="20.5"/><polyline class="cls-1" points="16 15 17 20 3 20 4 15 16 15"/></svg>